<?xml version="1.0" encoding="utf-8"?>
<!-- Generator: Adobe Illustrator 16.0.0, SVG Export Plug-In . SVG Version: 6.00 Build 0)  -->
<!DOCTYPE svg PUBLIC "-//W3C//DTD SVG 1.1//EN" "http://www.w3.org/Graphics/SVG/1.1/DTD/svg11.dtd" [
	<!ENTITY ns_extend "http://ns.adobe.com/Extensibility/1.0/">
	<!ENTITY ns_ai "http://ns.adobe.com/AdobeIllustrator/10.0/">
	<!ENTITY ns_graphs "http://ns.adobe.com/Graphs/1.0/">
	<!ENTITY ns_vars "http://ns.adobe.com/Variables/1.0/">
	<!ENTITY ns_imrep "http://ns.adobe.com/ImageReplacement/1.0/">
	<!ENTITY ns_sfw "http://ns.adobe.com/SaveForWeb/1.0/">
	<!ENTITY ns_custom "http://ns.adobe.com/GenericCustomNamespace/1.0/">
	<!ENTITY ns_adobe_xpath "http://ns.adobe.com/XPath/1.0/">
]>
<svg version="1.1" id="Ebene_1" xmlns:x="&ns_extend;" xmlns:i="&ns_ai;" xmlns:graph="&ns_graphs;"
	 xmlns="http://www.w3.org/2000/svg" xmlns:xlink="http://www.w3.org/1999/xlink" x="0px" y="0px" width="101.931px"
	 height="105.392px" viewBox="0 0 101.931 105.392" enable-background="new 0 0 101.931 105.392" xml:space="preserve">
<metadata>
	<sfw  xmlns="&ns_sfw;">
		<slices></slices>
		<sliceSourceBounds  width="101.931" height="100.673" y="-471.281" x="544.31" bottomLeftOrigin="true"></sliceSourceBounds>
	</sfw>
</metadata>
<g>
	<path fill="#6AA842" d="M0.32,68.071h7.55l8.501,16.201l3.2,7.2l0,0c-0.301-3.45-0.7-8.051-0.7-11.901v-11.5h7v32.602h-7.55
		L9.82,84.422l-3.2-7.101l0,0c0.301,3.601,0.7,7.951,0.7,11.801v11.551h-7V68.071z"/>
	<path fill="#93A4B0" d="M34.25,68.071H46c6.901,0,12.551,2.4,12.551,10.15c0,4.801-2.3,7.85-5.8,9.4l7.4,13.051h-8.251l-6.25-11.75
		h-4.05v11.75H34.25V68.071z M45.4,83.071c3.851,0,5.95-1.649,5.95-4.85s-2.1-4.301-5.95-4.301h-3.8v9.15H45.4z"/>
	<path fill="#C20E1A" d="M62.594,68.071h7.551l2.25,15.25c0.399,3.401,0.899,6.852,1.3,10.302h0.2c0.649-3.45,1.3-6.9,1.95-10.302
		l3.5-15.25h6.25l3.5,15.25c0.65,3.301,1.3,6.801,1.95,10.302h0.2c0.45-3.501,0.899-6.951,1.351-10.302l2.25-15.25h7.049
		l-5.799,32.602h-9.251l-3.2-14.801c-0.55-2.5-0.95-5.15-1.3-7.551h-0.2c-0.399,2.4-0.8,5.051-1.35,7.551l-3.051,14.801h-9.101
		L62.594,68.071z"/>
</g>
<g>
	<path fill="#FFFFFF" d="M0,30.328C0,11.429,10.35,0,25.199,0c14.849,0,25.289,11.52,25.289,30.328
		c0,18.989-10.44,30.869-25.289,30.869C10.35,61.197,0,49.317,0,30.328z M42.658,30.328c0-14.669-6.93-23.759-17.459-23.759
		c-10.53,0-17.459,9.09-17.459,23.759c0,14.76,6.93,24.299,17.459,24.299C35.729,54.627,42.658,45.088,42.658,30.328z"/>
	<path fill="#FFFFFF" d="M58.283,1.079h7.47v29.609h0.27L90.591,1.079h8.46l-18.449,22.5l21.329,36.538h-8.37l-17.64-30.688
		L65.752,41.397v18.72h-7.47V1.079z"/>
</g>
</svg>
