<?xml version="1.0" encoding="utf-8"?>
<!-- Generator: Adobe Illustrator 16.0.0, SVG Export Plug-In . SVG Version: 6.00 Build 0)  -->
<!DOCTYPE svg PUBLIC "-//W3C//DTD SVG 1.1//EN" "http://www.w3.org/Graphics/SVG/1.1/DTD/svg11.dtd" [
	<!ENTITY ns_extend "http://ns.adobe.com/Extensibility/1.0/">
	<!ENTITY ns_ai "http://ns.adobe.com/AdobeIllustrator/10.0/">
	<!ENTITY ns_graphs "http://ns.adobe.com/Graphs/1.0/">
	<!ENTITY ns_vars "http://ns.adobe.com/Variables/1.0/">
	<!ENTITY ns_imrep "http://ns.adobe.com/ImageReplacement/1.0/">
	<!ENTITY ns_sfw "http://ns.adobe.com/SaveForWeb/1.0/">
	<!ENTITY ns_custom "http://ns.adobe.com/GenericCustomNamespace/1.0/">
	<!ENTITY ns_adobe_xpath "http://ns.adobe.com/XPath/1.0/">
]>
<svg version="1.1" id="Ebene_1" xmlns:x="&ns_extend;" xmlns:i="&ns_ai;" xmlns:graph="&ns_graphs;"
	 xmlns="http://www.w3.org/2000/svg" xmlns:xlink="http://www.w3.org/1999/xlink" x="0px" y="0px" width="532.963px"
	 height="76.536px" viewBox="0 0 532.963 76.536" enable-background="new 0 0 532.963 76.536" xml:space="preserve">
<metadata>
	<sfw  xmlns="&ns_sfw;">
		<slices></slices>
		<sliceSourceBounds  width="503.195" height="69.595" y="-455.742" x="343.678" bottomLeftOrigin="true"></sliceSourceBounds>
	</sfw>
</metadata>
<g>
	<path fill="#FFFFFF" d="M4.678,23.421c0-10.4,5.65-16.951,13.551-16.951c7.951,0,13.601,6.551,13.601,16.951
		c0,10.451-5.65,17.202-13.601,17.202C10.328,40.623,4.678,33.872,4.678,23.421z M29.379,23.421c0-9.101-4.45-14.851-11.151-14.851
		c-6.7,0-11.15,5.75-11.15,14.851c0,9.15,4.45,15.101,11.15,15.101C24.929,38.522,29.379,32.571,29.379,23.421z"/>
	<path fill="#FFFFFF" d="M53.779,17.92H42.628v22.102h-2.2V17.92h-3.3v-1.7l3.3-0.2v-4.45c0-5,2.4-7.601,6.5-7.601
		c1.3,0,2.75,0.3,4.05,0.9l-0.6,1.8c-1.2-0.6-2.3-0.8-3.45-0.8c-2.85,0-4.3,2.15-4.3,5.85v4.3h11.151v-5.35
		c0-4.75,2.1-7.201,5.9-7.201c1.15,0,2.4,0.3,3.5,0.8l-0.6,1.8c-0.95-0.5-1.95-0.7-2.85-0.7c-2.6,0-3.75,1.95-3.75,5.451v5.2h5.55
		v1.9h-5.55v22.102h-2.2V17.92z"/>
	<path fill="#FFFFFF" d="M64.597,28.071c0-7.851,5.101-12.651,10.451-12.651c5.7,0,9.201,4.05,9.201,11.101c0,0.6,0,1.2-0.1,1.8
		H66.847c0.1,6.05,3.65,10.4,9.051,10.4c2.6,0,4.65-0.85,6.45-2.15l0.9,1.7c-1.9,1.15-4.05,2.351-7.551,2.351
		C69.547,40.623,64.597,35.922,64.597,28.071z M82.148,26.521c0-6.15-2.75-9.2-7.051-9.2c-4.1,0-7.75,3.45-8.25,9.2H82.148z"/>
	<path fill="#FFFFFF" d="M91.187,16.021h1.9l0.2,3.7h0.15c2.45-2.45,4.95-4.3,8.25-4.3c4.95,0,7.25,3,7.25,9.201v15.401h-2.2V24.921
		c0-5.1-1.6-7.5-5.5-7.5c-2.85,0-4.9,1.5-7.851,4.5v18.101h-2.2V16.021z"/>
	<path fill="#FFFFFF" d="M116.126,28.071c0-7.851,5.101-12.651,10.451-12.651c5.7,0,9.201,4.05,9.201,11.101c0,0.6,0,1.2-0.1,1.8
		h-17.301c0.1,6.05,3.65,10.4,9.051,10.4c2.6,0,4.65-0.85,6.45-2.15l0.9,1.7c-1.9,1.15-4.05,2.351-7.551,2.351
		C121.077,40.623,116.126,35.922,116.126,28.071z M133.678,26.521c0-6.15-2.75-9.2-7.051-9.2c-4.1,0-7.75,3.45-8.25,9.2H133.678z"/>
	<path fill="#FFFFFF" d="M155.026,7.07h2.3v18.301h0.1L173.377,7.07h2.75l-10.5,12.201l11.951,20.751h-2.65l-10.9-19.001
		l-6.701,7.65v11.351h-2.3V7.07z"/>
	<path fill="#FFFFFF" d="M181.821,28.071c0-8.051,5-12.651,10.75-12.651c5.801,0,10.801,4.6,10.801,12.651
		c0,7.95-5,12.551-10.801,12.551C186.821,40.623,181.821,36.021,181.821,28.071z M201.072,28.071c0-6.351-3.65-10.701-8.501-10.701
		c-4.85,0-8.45,4.35-8.45,10.701c0,6.3,3.6,10.601,8.45,10.601C197.422,38.672,201.072,34.372,201.072,28.071z"/>
	<path fill="#FFFFFF" d="M209.615,16.021h1.9l0.2,3.7h0.15c2.15-2.45,4.9-4.3,7.55-4.3c3.85,0,5.8,1.95,6.65,4.9
		c2.75-3,5.4-4.9,8.15-4.9c4.801,0,7.2,3,7.2,9.201v15.401h-2.25V24.921c0-5.1-1.7-7.5-5.35-7.5c-2.25,0-4.55,1.5-7.201,4.5v18.101
		h-2.2V24.921c0-5.1-1.7-7.5-5.4-7.5c-2.15,0-4.55,1.5-7.201,4.5v18.101h-2.2V16.021z"/>
	<path fill="#FFFFFF" d="M250.205,16.021h1.899l0.2,3.7h0.15c2.15-2.45,4.9-4.3,7.549-4.3c3.851,0,5.801,1.95,6.651,4.9
		c2.75-3,5.399-4.9,8.15-4.9c4.8,0,7.2,3,7.2,9.201v15.401h-2.25V24.921c0-5.1-1.7-7.5-5.351-7.5c-2.25,0-4.55,1.5-7.2,4.5v18.101
		h-2.2V24.921c0-5.1-1.7-7.5-5.399-7.5c-2.15,0-4.551,1.5-7.2,4.5v18.101h-2.2V16.021z"/>
	<path fill="#FFFFFF" d="M290.504,31.421V16.021h2.2v15.101c0,5.1,1.601,7.5,5.45,7.5c2.851,0,4.95-1.5,7.751-4.9V16.021h2.2v24.001
		h-1.851l-0.25-4h-0.1c-2.351,2.75-4.851,4.601-8.15,4.601C292.805,40.623,290.504,37.622,290.504,31.421z"/>
	<path fill="#FFFFFF" d="M317.074,16.021h1.899l0.2,3.7h0.15c2.451-2.45,4.951-4.3,8.25-4.3c4.951,0,7.251,3,7.251,9.201v15.401
		h-2.2V24.921c0-5.1-1.6-7.5-5.5-7.5c-2.85,0-4.9,1.5-7.85,4.5v18.101h-2.201V16.021z"/>
	<path fill="#FFFFFF" d="M342.014,28.071c0-7.851,5.1-12.651,10.45-12.651c5.7,0,9.2,4.05,9.2,11.101c0,0.6,0,1.2-0.1,1.8h-17.301
		c0.1,6.05,3.65,10.4,9.05,10.4c2.601,0,4.65-0.85,6.451-2.15l0.899,1.7c-1.899,1.15-4.05,2.351-7.55,2.351
		C346.964,40.623,342.014,35.922,342.014,28.071z M359.564,26.521c0-6.15-2.75-9.2-7.051-9.2c-4.1,0-7.75,3.45-8.25,9.2H359.564z"/>
	<path fill="#FFFFFF" d="M368.604,16.021h1.899l0.2,3.7h0.15c2.451-2.45,4.951-4.3,8.25-4.3c4.951,0,7.251,3,7.251,9.201v15.401
		h-2.2V24.921c0-5.1-1.6-7.5-5.5-7.5c-2.85,0-4.9,1.5-7.85,4.5v18.101h-2.201V16.021z"/>
	<path fill="#FFFFFF" d="M394.358,38.372c0-1.45,1.05-2.3,2.149-2.3c1.101,0,2.101,0.85,2.101,2.3c0,1.4-1,2.25-2.101,2.25
		C395.408,40.623,394.358,39.772,394.358,38.372z"/>
	<path fill="#6AA842" d="M406.298,7.42h7.55l8.501,16.201l3.2,7.2l0,0c-0.301-3.45-0.7-8.05-0.7-11.9V7.42h7v32.602h-7.55
		l-8.501-16.251l-3.2-7.101l0,0c0.301,3.601,0.7,7.951,0.7,11.801v11.551h-7V7.42z"/>
	<path fill="#93A4B0" d="M440.229,7.42h11.75c6.899,0,12.551,2.4,12.551,10.151c0,4.8-2.3,7.85-5.8,9.4l7.399,13.051h-8.251
		l-6.25-11.75h-4.05v11.75h-7.35V7.42z M451.378,22.421c3.852,0,5.95-1.65,5.95-4.85s-2.099-4.3-5.95-4.3h-3.8v9.15H451.378z"/>
	<path fill="#C20E1A" d="M468.571,7.42h7.551l2.25,15.251c0.399,3.4,0.899,6.851,1.3,10.301h0.2c0.649-3.45,1.3-6.9,1.95-10.301
		l3.5-15.251h6.25l3.5,15.251c0.65,3.3,1.301,6.8,1.95,10.301h0.2c0.45-3.5,0.9-6.951,1.351-10.301l2.25-15.251h7.05l-5.8,32.602
		h-9.251l-3.2-14.801c-0.55-2.5-0.95-5.15-1.3-7.551h-0.2c-0.399,2.4-0.8,5.05-1.35,7.551l-3.051,14.801h-9.101L468.571,7.42z"/>
	<g>
		<path fill="#93A4B0" d="M4.877,52.83h4.484c3.058,0,5.174,1.035,5.174,3.679c0,1.495-0.782,2.829-2.208,3.289v0.092
			c1.816,0.345,3.081,1.541,3.081,3.61c0,2.966-2.345,4.415-5.726,4.415H4.877V52.83z M9.017,59.246
			c2.576,0,3.633-0.943,3.633-2.483c0-1.748-1.196-2.415-3.541-2.415H6.786v4.898H9.017z M9.408,66.397
			c2.599,0,4.116-0.943,4.116-2.967c0-1.862-1.472-2.713-4.116-2.713H6.786v5.68H9.408z"/>
		<path fill="#93A4B0" d="M17.413,62.349c0-3.656,2.46-5.887,5.013-5.887c2.851,0,4.461,2.047,4.461,5.243
			c0,0.391-0.023,0.805-0.069,1.08h-7.542c0.138,2.369,1.586,3.887,3.725,3.887c1.058,0,1.955-0.345,2.782-0.874l0.667,1.241
			c-0.966,0.621-2.162,1.15-3.679,1.15C19.781,68.19,17.413,66.005,17.413,62.349z M25.231,61.43c0-2.254-1.012-3.473-2.759-3.473
			c-1.563,0-2.989,1.265-3.219,3.473H25.231z"/>
		<path fill="#93A4B0" d="M29.855,64.465V58.28H28.2v-1.426l1.748-0.115l0.23-3.127h1.587v3.127h3.012v1.541h-3.012v6.208
			c0,1.38,0.437,2.162,1.725,2.162c0.391,0,0.896-0.161,1.265-0.299l0.368,1.425c-0.621,0.207-1.379,0.414-2.069,0.414
			C30.66,68.19,29.855,66.672,29.855,64.465z"/>
		<path fill="#93A4B0" d="M36.024,62.349c0-3.656,2.46-5.887,5.013-5.887c2.851,0,4.461,2.047,4.461,5.243
			c0,0.391-0.023,0.805-0.069,1.08h-7.542c0.138,2.369,1.586,3.887,3.725,3.887c1.058,0,1.955-0.345,2.782-0.874l0.667,1.241
			c-0.966,0.621-2.162,1.15-3.679,1.15C38.393,68.19,36.024,66.005,36.024,62.349z M43.842,61.43c0-2.254-1.012-3.473-2.759-3.473
			c-1.563,0-2.989,1.265-3.219,3.473H43.842z"/>
		<path fill="#93A4B0" d="M47.71,53.22c0-0.735,0.575-1.219,1.311-1.219s1.311,0.483,1.311,1.219c0,0.713-0.575,1.219-1.311,1.219
			S47.71,53.933,47.71,53.22z M48.055,56.739h1.885v11.176h-1.885V56.739z"/>
		<path fill="#93A4B0" d="M53.31,65.661V51.542h1.885v14.257c0,0.599,0.253,0.828,0.529,0.828c0.115,0,0.207,0,0.414-0.046
			l0.253,1.426c-0.253,0.115-0.575,0.184-1.081,0.184C53.885,68.19,53.31,67.293,53.31,65.661z"/>
		<path fill="#93A4B0" d="M58.427,53.22c0-0.735,0.575-1.219,1.311-1.219s1.311,0.483,1.311,1.219c0,0.713-0.575,1.219-1.311,1.219
			S58.427,53.933,58.427,53.22z M58.772,56.739h1.885v11.176h-1.885V56.739z"/>
		<path fill="#93A4B0" d="M63.19,70.053c0-0.943,0.621-1.84,1.633-2.53v-0.092c-0.552-0.345-0.989-0.942-0.989-1.816
			c0-0.942,0.644-1.679,1.219-2.069v-0.092c-0.736-0.599-1.449-1.679-1.449-3.013c0-2.438,1.932-3.979,4.208-3.979
			c0.621,0,1.173,0.115,1.587,0.276h3.886v1.448h-2.299c0.529,0.506,0.92,1.356,0.92,2.3c0,2.391-1.817,3.887-4.093,3.887
			c-0.552,0-1.173-0.139-1.679-0.392c-0.391,0.345-0.713,0.713-0.713,1.333c0,0.714,0.46,1.22,1.978,1.22h2.162
			c2.599,0,3.909,0.805,3.909,2.668c0,2.069-2.185,3.862-5.657,3.862C65.076,73.065,63.19,71.985,63.19,70.053z M71.63,69.477
			c0-1.034-0.805-1.379-2.254-1.379h-1.931c-0.437,0-0.966-0.046-1.449-0.184c-0.805,0.574-1.15,1.241-1.15,1.886
			c0,1.196,1.219,1.955,3.242,1.955C70.227,71.755,71.63,70.651,71.63,69.477z M70.181,60.441c0-1.633-1.058-2.599-2.369-2.599
			s-2.369,0.966-2.369,2.599c0,1.632,1.081,2.667,2.369,2.667S70.181,62.073,70.181,60.441z"/>
		<path fill="#93A4B0" d="M75.334,63.821v-7.082h1.909v6.829c0,2.093,0.621,2.989,2.092,2.989c1.15,0,1.955-0.574,3.013-1.885
			v-7.934h1.885v11.176h-1.563l-0.161-1.748h-0.069c-1.035,1.219-2.139,2.023-3.679,2.023C76.392,68.19,75.334,66.672,75.334,63.821
			z"/>
		<path fill="#93A4B0" d="M87.627,56.739h1.563l0.161,1.609h0.069c1.058-1.058,2.208-1.886,3.748-1.886
			c2.346,0,3.403,1.518,3.403,4.369v7.083h-1.886v-6.83c0-2.092-0.644-2.989-2.115-2.989c-1.15,0-1.932,0.598-3.059,1.725v8.095
			h-1.885V56.739z"/>
		<path fill="#93A4B0" d="M99.015,70.053c0-0.943,0.621-1.84,1.633-2.53v-0.092c-0.552-0.345-0.989-0.942-0.989-1.816
			c0-0.942,0.644-1.679,1.219-2.069v-0.092c-0.736-0.599-1.449-1.679-1.449-3.013c0-2.438,1.932-3.979,4.208-3.979
			c0.621,0,1.173,0.115,1.587,0.276h3.886v1.448h-2.299c0.529,0.506,0.92,1.356,0.92,2.3c0,2.391-1.817,3.887-4.093,3.887
			c-0.552,0-1.173-0.139-1.679-0.392c-0.391,0.345-0.713,0.713-0.713,1.333c0,0.714,0.46,1.22,1.978,1.22h2.162
			c2.599,0,3.909,0.805,3.909,2.668c0,2.069-2.185,3.862-5.657,3.862C100.9,73.065,99.015,71.985,99.015,70.053z M107.454,69.477
			c0-1.034-0.805-1.379-2.254-1.379h-1.931c-0.437,0-0.966-0.046-1.449-0.184c-0.805,0.574-1.15,1.241-1.15,1.886
			c0,1.196,1.219,1.955,3.242,1.955C106.051,71.755,107.454,70.651,107.454,69.477z M106.005,60.441
			c0-1.633-1.058-2.599-2.369-2.599s-2.369,0.966-2.369,2.599c0,1.632,1.081,2.667,2.369,2.667S106.005,62.073,106.005,60.441z"/>
		<path fill="#93A4B0" d="M115.621,60.533c0-0.874,0.621-1.472,1.38-1.472c0.736,0,1.356,0.598,1.356,1.472
			c0,0.828-0.621,1.426-1.356,1.426C116.242,61.958,115.621,61.361,115.621,60.533z"/>
		<path fill="#93A4B0" d="M126.477,52.83h8.692v1.609h-6.784v4.737h5.726v1.633h-5.726v5.473h7.014v1.633h-8.922V52.83z"/>
		<path fill="#93A4B0" d="M137.91,56.739h1.563l0.161,1.609h0.069c1.058-1.058,2.208-1.886,3.748-1.886
			c2.346,0,3.403,1.518,3.403,4.369v7.083h-1.886v-6.83c0-2.092-0.644-2.989-2.115-2.989c-1.15,0-1.932,0.598-3.059,1.725v8.095
			h-1.885V56.739z"/>
		<path fill="#93A4B0" d="M149.297,70.053c0-0.943,0.621-1.84,1.633-2.53v-0.092c-0.552-0.345-0.989-0.942-0.989-1.816
			c0-0.942,0.644-1.679,1.219-2.069v-0.092c-0.736-0.599-1.449-1.679-1.449-3.013c0-2.438,1.932-3.979,4.208-3.979
			c0.621,0,1.173,0.115,1.587,0.276h3.886v1.448h-2.299c0.529,0.506,0.92,1.356,0.92,2.3c0,2.391-1.817,3.887-4.093,3.887
			c-0.552,0-1.173-0.139-1.679-0.392c-0.391,0.345-0.713,0.713-0.713,1.333c0,0.714,0.46,1.22,1.978,1.22h2.162
			c2.599,0,3.909,0.805,3.909,2.668c0,2.069-2.185,3.862-5.657,3.862C151.183,73.065,149.297,71.985,149.297,70.053z
			 M157.736,69.477c0-1.034-0.805-1.379-2.254-1.379h-1.931c-0.437,0-0.966-0.046-1.449-0.184c-0.805,0.574-1.15,1.241-1.15,1.886
			c0,1.196,1.219,1.955,3.242,1.955C156.333,71.755,157.736,70.651,157.736,69.477z M156.288,60.441
			c0-1.633-1.058-2.599-2.369-2.599s-2.369,0.966-2.369,2.599c0,1.632,1.081,2.667,2.369,2.667S156.288,62.073,156.288,60.441z"/>
		<path fill="#93A4B0" d="M160.935,65.017c0-2.438,2.092-3.656,6.853-4.186c0-1.426-0.46-2.805-2.3-2.805
			c-1.288,0-2.46,0.598-3.334,1.195l-0.736-1.312c1.035-0.666,2.598-1.448,4.392-1.448c2.736,0,3.886,1.817,3.886,4.6v6.853h-1.564
			l-0.161-1.334h-0.069c-1.058,0.874-2.299,1.609-3.702,1.609C162.338,68.19,160.935,67.017,160.935,65.017z M167.788,65.178v-3.105
			c-3.725,0.461-5.013,1.381-5.013,2.807c0,1.265,0.874,1.793,1.978,1.793C165.833,66.672,166.707,66.144,167.788,65.178z"/>
		<path fill="#93A4B0" d="M172.032,70.053c0-0.943,0.621-1.84,1.633-2.53v-0.092c-0.552-0.345-0.989-0.942-0.989-1.816
			c0-0.942,0.644-1.679,1.219-2.069v-0.092c-0.736-0.599-1.449-1.679-1.449-3.013c0-2.438,1.932-3.979,4.208-3.979
			c0.621,0,1.173,0.115,1.587,0.276h3.886v1.448h-2.299c0.529,0.506,0.92,1.356,0.92,2.3c0,2.391-1.817,3.887-4.093,3.887
			c-0.552,0-1.173-0.139-1.679-0.392c-0.391,0.345-0.713,0.713-0.713,1.333c0,0.714,0.46,1.22,1.978,1.22h2.162
			c2.599,0,3.909,0.805,3.909,2.668c0,2.069-2.185,3.862-5.657,3.862C173.918,73.065,172.032,71.985,172.032,70.053z
			 M180.472,69.477c0-1.034-0.805-1.379-2.254-1.379h-1.931c-0.437,0-0.966-0.046-1.449-0.184c-0.805,0.574-1.15,1.241-1.15,1.886
			c0,1.196,1.219,1.955,3.242,1.955C179.069,71.755,180.472,70.651,180.472,69.477z M179.023,60.441
			c0-1.633-1.058-2.599-2.369-2.599s-2.369,0.966-2.369,2.599c0,1.632,1.081,2.667,2.369,2.667S179.023,62.073,179.023,60.441z"/>
		<path fill="#93A4B0" d="M183.277,62.349c0-3.656,2.46-5.887,5.013-5.887c2.851,0,4.461,2.047,4.461,5.243
			c0,0.391-0.023,0.805-0.069,1.08h-7.542c0.138,2.369,1.586,3.887,3.725,3.887c1.058,0,1.955-0.345,2.782-0.874l0.667,1.241
			c-0.966,0.621-2.162,1.15-3.679,1.15C185.646,68.19,183.277,66.005,183.277,62.349z M191.095,61.43
			c0-2.254-1.012-3.473-2.759-3.473c-1.563,0-2.989,1.265-3.219,3.473H191.095z"/>
		<path fill="#93A4B0" d="M195.386,56.739h1.563l0.161,1.609h0.069c0.966-1.058,2.139-1.886,3.472-1.886
			c1.702,0,2.622,0.806,3.082,2.139c1.173-1.265,2.322-2.139,3.679-2.139c2.299,0,3.403,1.518,3.403,4.369v7.083h-1.886v-6.83
			c0-2.092-0.667-2.989-2.07-2.989c-0.874,0-1.771,0.575-2.805,1.725v8.095h-1.886v-6.83c0-2.092-0.667-2.989-2.092-2.989
			c-0.828,0-1.771,0.575-2.806,1.725v8.095h-1.885V56.739z"/>
		<path fill="#93A4B0" d="M213.461,62.349c0-3.656,2.46-5.887,5.013-5.887c2.851,0,4.461,2.047,4.461,5.243
			c0,0.391-0.023,0.805-0.069,1.08h-7.542c0.138,2.369,1.586,3.887,3.725,3.887c1.058,0,1.955-0.345,2.782-0.874l0.667,1.241
			c-0.966,0.621-2.162,1.15-3.679,1.15C215.83,68.19,213.461,66.005,213.461,62.349z M221.28,61.43c0-2.254-1.012-3.473-2.759-3.473
			c-1.563,0-2.989,1.265-3.219,3.473H221.28z"/>
		<path fill="#93A4B0" d="M225.571,56.739h1.563l0.161,1.609h0.069c1.058-1.058,2.208-1.886,3.748-1.886
			c2.346,0,3.403,1.518,3.403,4.369v7.083h-1.886v-6.83c0-2.092-0.644-2.989-2.115-2.989c-1.15,0-1.932,0.598-3.059,1.725v8.095
			h-1.885V56.739z"/>
		<path fill="#93A4B0" d="M238.115,64.465V58.28h-1.656v-1.426l1.748-0.115l0.23-3.127h1.587v3.127h3.012v1.541h-3.012v6.208
			c0,1.38,0.437,2.162,1.725,2.162c0.391,0,0.896-0.161,1.265-0.299l0.368,1.425c-0.621,0.207-1.379,0.414-2.069,0.414
			C238.919,68.19,238.115,66.672,238.115,64.465z"/>
		<path fill="#93A4B0" d="M249.73,60.533c0-0.874,0.621-1.472,1.38-1.472c0.736,0,1.356,0.598,1.356,1.472
			c0,0.828-0.621,1.426-1.356,1.426C250.351,61.958,249.73,61.361,249.73,60.533z"/>
		<path fill="#93A4B0" d="M260.584,52.83h1.909v7.565h0.069l6.277-7.565h2.161l-4.714,5.749l5.449,9.336h-2.138l-4.507-7.842
			l-2.599,3.059v4.783h-1.909V52.83z"/>
		<path fill="#93A4B0" d="M272.383,62.349c0-3.748,2.438-5.887,5.174-5.887s5.174,2.139,5.174,5.887
			c0,3.702-2.438,5.841-5.174,5.841S272.383,66.051,272.383,62.349z M280.776,62.349c0-2.575-1.288-4.322-3.22-4.322
			c-1.908,0-3.219,1.747-3.219,4.322c0,2.553,1.311,4.277,3.219,4.277C279.488,66.626,280.776,64.902,280.776,62.349z"/>
		<path fill="#93A4B0" d="M284.748,62.349c0-3.748,2.438-5.887,5.174-5.887s5.174,2.139,5.174,5.887
			c0,3.702-2.438,5.841-5.174,5.841S284.748,66.051,284.748,62.349z M293.142,62.349c0-2.575-1.288-4.322-3.22-4.322
			c-1.908,0-3.219,1.747-3.219,4.322c0,2.553,1.311,4.277,3.219,4.277C291.854,66.626,293.142,64.902,293.142,62.349z"/>
		<path fill="#93A4B0" d="M297.821,56.739h1.563l0.161,1.288h0.069c1.012-0.852,2.253-1.564,3.564-1.564
			c2.875,0,4.414,2.23,4.414,5.703c0,3.794-2.276,6.024-4.829,6.024c-1.034,0-2.069-0.482-3.104-1.287l0.046,1.954v3.771h-1.886
			V56.739z M305.64,62.166c0-2.46-0.827-4.116-2.943-4.116c-0.943,0-1.886,0.529-2.989,1.518v5.864c1.012,0.851,2,1.173,2.736,1.173
			C304.283,66.604,305.64,64.925,305.64,62.166z"/>
		<path fill="#93A4B0" d="M309.682,62.349c0-3.656,2.461-5.887,5.013-5.887c2.852,0,4.461,2.047,4.461,5.243
			c0,0.391-0.022,0.805-0.067,1.08h-7.544c0.14,2.369,1.587,3.887,3.726,3.887c1.058,0,1.955-0.345,2.782-0.874l0.667,1.241
			c-0.966,0.621-2.16,1.15-3.679,1.15C312.05,68.19,309.682,66.005,309.682,62.349z M317.5,61.43c0-2.254-1.012-3.473-2.76-3.473
			c-1.563,0-2.989,1.265-3.219,3.473H317.5z"/>
		<path fill="#93A4B0" d="M321.79,56.739h1.563l0.161,2.023h0.069c0.759-1.402,1.908-2.3,3.173-2.3c0.482,0,0.828,0.069,1.195,0.23
			l-0.367,1.655c-0.368-0.114-0.621-0.184-1.081-0.184c-0.941,0-2.068,0.689-2.828,2.575v7.175h-1.886V56.739z"/>
		<path fill="#93A4B0" d="M329.117,65.017c0-2.438,2.093-3.656,6.853-4.186c0-1.426-0.46-2.805-2.299-2.805
			c-1.288,0-2.461,0.598-3.335,1.195l-0.735-1.312c1.035-0.666,2.599-1.448,4.392-1.448c2.736,0,3.887,1.817,3.887,4.6v6.853h-1.563
			l-0.161-1.334h-0.069c-1.058,0.874-2.3,1.609-3.702,1.609C330.521,68.19,329.117,67.017,329.117,65.017z M335.97,65.178v-3.105
			c-3.724,0.461-5.013,1.381-5.013,2.807c0,1.265,0.874,1.793,1.979,1.793C334.016,66.672,334.89,66.144,335.97,65.178z"/>
		<path fill="#93A4B0" d="M341.359,64.465V58.28h-1.655v-1.426l1.748-0.115l0.229-3.127h1.588v3.127h3.012v1.541h-3.012v6.208
			c0,1.38,0.436,2.162,1.724,2.162c0.391,0,0.896-0.161,1.265-0.299l0.368,1.425c-0.621,0.207-1.38,0.414-2.069,0.414
			C342.165,68.19,341.359,66.672,341.359,64.465z"/>
		<path fill="#93A4B0" d="M348.32,53.22c0-0.735,0.574-1.219,1.311-1.219s1.311,0.483,1.311,1.219c0,0.713-0.574,1.219-1.311,1.219
			S348.32,53.933,348.32,53.22z M348.665,56.739h1.886v11.176h-1.886V56.739z"/>
		<path fill="#93A4B0" d="M353.198,62.349c0-3.748,2.438-5.887,5.174-5.887s5.174,2.139,5.174,5.887
			c0,3.702-2.438,5.841-5.174,5.841S353.198,66.051,353.198,62.349z M361.592,62.349c0-2.575-1.287-4.322-3.22-4.322
			c-1.908,0-3.218,1.747-3.218,4.322c0,2.553,1.31,4.277,3.218,4.277C360.305,66.626,361.592,64.902,361.592,62.349z"/>
		<path fill="#93A4B0" d="M366.271,56.739h1.563l0.161,1.609h0.068c1.059-1.058,2.208-1.886,3.749-1.886
			c2.345,0,3.403,1.518,3.403,4.369v7.083h-1.886v-6.83c0-2.092-0.644-2.989-2.116-2.989c-1.149,0-1.932,0.598-3.058,1.725v8.095
			h-1.886V56.739z"/>
		<path fill="#93A4B0" d="M383.015,60.533c0-0.874,0.62-1.472,1.38-1.472c0.735,0,1.356,0.598,1.356,1.472
			c0,0.828-0.621,1.426-1.356,1.426C383.635,61.958,383.015,61.361,383.015,60.533z"/>
		<path fill="#93A4B0" d="M396.997,54.439h-4.554V52.83h11.038v1.609h-4.552v13.476h-1.933V54.439z"/>
		<path fill="#93A4B0" d="M404.109,56.739h1.563l0.161,2.023h0.068c0.76-1.402,1.91-2.3,3.174-2.3c0.482,0,0.828,0.069,1.195,0.23
			l-0.367,1.655c-0.368-0.114-0.621-0.184-1.081-0.184c-0.942,0-2.069,0.689-2.827,2.575v7.175h-1.887V56.739z"/>
		<path fill="#93A4B0" d="M411.438,65.017c0-2.438,2.092-3.656,6.852-4.186c0-1.426-0.46-2.805-2.299-2.805
			c-1.288,0-2.461,0.598-3.335,1.195l-0.735-1.312c1.035-0.666,2.6-1.448,4.393-1.448c2.735,0,3.886,1.817,3.886,4.6v6.853h-1.563
			l-0.161-1.334h-0.069c-1.058,0.874-2.3,1.609-3.702,1.609C412.84,68.19,411.438,67.017,411.438,65.017z M418.289,65.178v-3.105
			c-3.725,0.461-5.013,1.381-5.013,2.807c0,1.265,0.874,1.793,1.978,1.793C416.335,66.672,417.209,66.144,418.289,65.178z"/>
		<path fill="#93A4B0" d="M423.449,56.739h1.563l0.161,1.609h0.068c1.059-1.058,2.208-1.886,3.75-1.886
			c2.344,0,3.402,1.518,3.402,4.369v7.083h-1.886v-6.83c0-2.092-0.645-2.989-2.116-2.989c-1.149,0-1.932,0.598-3.058,1.725v8.095
			h-1.886V56.739z"/>
		<path fill="#93A4B0" d="M434.545,66.65l0.943-1.265c0.966,0.781,1.954,1.333,3.288,1.333c1.472,0,2.207-0.781,2.207-1.747
			c0-1.15-1.333-1.656-2.552-2.116c-1.587-0.574-3.335-1.333-3.335-3.219c0-1.794,1.426-3.174,3.841-3.174
			c1.402,0,2.621,0.575,3.472,1.265l-0.896,1.196c-0.759-0.575-1.563-0.989-2.553-0.989c-1.401,0-2.046,0.759-2.046,1.609
			c0,1.059,1.219,1.449,2.483,1.933c1.609,0.597,3.403,1.265,3.403,3.38c0,1.816-1.449,3.334-4.094,3.334
			C437.121,68.19,435.604,67.523,434.545,66.65z"/>
		<path fill="#93A4B0" d="M445.196,56.739h1.563l0.161,1.288h0.069c1.012-0.852,2.253-1.564,3.564-1.564
			c2.875,0,4.414,2.23,4.414,5.703c0,3.794-2.276,6.024-4.829,6.024c-1.034,0-2.069-0.482-3.104-1.287l0.046,1.954v3.771h-1.886
			V56.739z M453.015,62.166c0-2.46-0.827-4.116-2.943-4.116c-0.943,0-1.886,0.529-2.989,1.518v5.864
			c1.012,0.851,2,1.173,2.736,1.173C451.658,66.604,453.015,64.925,453.015,62.166z"/>
		<path fill="#93A4B0" d="M456.957,65.017c0-2.438,2.093-3.656,6.853-4.186c0-1.426-0.46-2.805-2.299-2.805
			c-1.288,0-2.461,0.598-3.335,1.195l-0.735-1.312c1.035-0.666,2.599-1.448,4.392-1.448c2.736,0,3.887,1.817,3.887,4.6v6.853h-1.563
			l-0.161-1.334h-0.069c-1.058,0.874-2.3,1.609-3.702,1.609C458.36,68.19,456.957,67.017,456.957,65.017z M463.81,65.178v-3.105
			c-3.725,0.461-5.013,1.381-5.013,2.807c0,1.265,0.874,1.793,1.979,1.793C461.855,66.672,462.729,66.144,463.81,65.178z"/>
		<path fill="#93A4B0" d="M468.971,56.739h1.563l0.161,2.023h0.068c0.76-1.402,1.909-2.3,3.174-2.3c0.482,0,0.828,0.069,1.195,0.23
			l-0.367,1.655c-0.368-0.114-0.621-0.184-1.08-0.184c-0.943,0-2.07,0.689-2.829,2.575v7.175h-1.886V56.739z"/>
		<path fill="#93A4B0" d="M475.893,62.349c0-3.656,2.462-5.887,5.013-5.887c2.852,0,4.462,2.047,4.462,5.243
			c0,0.391-0.023,0.805-0.069,1.08h-7.543c0.14,2.369,1.587,3.887,3.726,3.887c1.058,0,1.955-0.345,2.782-0.874l0.667,1.241
			c-0.966,0.621-2.16,1.15-3.679,1.15C478.261,68.19,475.893,66.005,475.893,62.349z M483.711,61.43c0-2.254-1.012-3.473-2.76-3.473
			c-1.563,0-2.988,1.265-3.219,3.473H483.711z"/>
		<path fill="#93A4B0" d="M488.002,56.739h1.563l0.161,1.609h0.068c1.06-1.058,2.208-1.886,3.749-1.886
			c2.345,0,3.403,1.518,3.403,4.369v7.083h-1.885v-6.83c0-2.092-0.646-2.989-2.117-2.989c-1.149,0-1.932,0.598-3.058,1.725v8.095
			h-1.886V56.739z"/>
		<path fill="#93A4B0" d="M499.132,66.903l5.888-8.623h-5.244v-1.541h7.635v1.012l-5.887,8.623h6.07v1.541h-8.462V66.903z"/>
	</g>
</g>
</svg>
